<svg xmlns="http://www.w3.org/2000/svg" viewBox="0 0 28.125 20">
    <defs>
        <style>
            .cls-1{fill:#fff}
        </style>
    </defs>
    <path id="path" d="M22.375 22.125a2.45 2.45 0 0 1-2.5 1.875H5a2.507 2.507 0 0 1-2.5-2.5v-.625c0-.375.125-.625.125-1a12.972 12.972 0 0 1 .375-1.5c.75-1.625 5.875-3.625 9.5-3.625a18.735 18.735 0 0 1 5.625 1.125 12.3 12.3 0 0 1 5-1.25c2.75 0 6.5 1.625 7.125 2.875a3.137 3.137 0 0 1 .25 1.25c0 .25.125.5.125.75v.5a2.218 2.218 0 0 1-2.125 2.25h-6.125v-.125zM21 17.5a2.1 2.1 0 0 1 .875 1 7.767 7.767 0 0 1 .375 1.25h5.875a.752.752 0 0 0-.125-.5c0-.125 0-.375-.125-.375a.436.436 0 0 0-.25-.125 11.615 11.615 0 0 0-1.25-.625 8.709 8.709 0 0 0-3.375-.75 2.831 2.831 0 0 0-2 .125zm2.125-4.125a3.683 3.683 0 0 1-3.75-3.75 3.75 3.75 0 0 1 7.5 0 3.683 3.683 0 0 1-3.75 3.75zm0-2.5a1.181 1.181 0 0 0 1.25-1.25 1.25 1.25 0 0 0-2.5 0 1.181 1.181 0 0 0 1.25 1.25zM12.5 13.25a4.7 4.7 0 0 1-4.625-4.625A4.7 4.7 0 0 1 12.5 4a4.7 4.7 0 0 1 4.625 4.625A4.7 4.7 0 0 1 12.5 13.25zm0-2.5a2.19 2.19 0 0 0 2.125-2.125A2.19 2.19 0 0 0 12.5 6.5a2.19 2.19 0 0 0-2.125 2.125A2.19 2.19 0 0 0 12.5 10.75zm7.25 8.875a1.726 1.726 0 0 0-.5-.375c-.5-.25-1.125-.625-1.75-.875a14.467 14.467 0 0 0-5-1.125 13.017 13.017 0 0 0-5 1.125c-.625.25-1.25.625-1.75.875a1.726 1.726 0 0 0-.5.375 4.42 4.42 0 0 0-.125.75c0 .25-.125.625-.125.875v.25h14.875v-.25c0-.25-.125-.625-.125-.875v-.75z" class="cls-1" transform="translate(-2.5 -4)"/>
</svg>
