<svg xmlns="http://www.w3.org/2000/svg" viewBox="0 0 20 20">
    <defs>
        <style>
            .cls-1{fill:rgba(255,96,96,0)}.cls-2{fill:#344466}
        </style>
    </defs>
    <g id="icon" transform="translate(-18 -335)">
        <path id="bg" d="M0 0h20v20H0z" class="cls-1" transform="translate(18 335)"/>
        <path id="path" d="M15.091 3.455h1.089A1.82 1.82 0 0 1 18 5.275v10.9A1.82 1.82 0 0 1 16.179 18H3.821A1.82 1.82 0 0 1 2 16.179V5.275a1.82 1.82 0 0 1 1.821-1.82h1.088v-.728a.727.727 0 1 1 1.455 0v.727h1.454v-.727a.727.727 0 1 1 1.455 0v.727h1.455v-.727a.727.727 0 1 1 1.455 0v.727h1.455v-.727a.727.727 0 1 1 1.455 0v.727zm0 1.455v.727a.727.727 0 0 1-1.455 0v-.728h-1.454v.727a.727.727 0 0 1-1.455 0v-.727H9.273v.727a.727.727 0 0 1-1.455 0v-.727H6.364v.727a.727.727 0 0 1-1.455 0v-.727H3.821a.365.365 0 0 0-.366.366v10.9a.366.366 0 0 0 .366.366h12.358a.365.365 0 0 0 .366-.366v-10.9a.366.366 0 0 0-.366-.366zM5.636 9.636a.727.727 0 0 1 0-1.455h7.636a.727.727 0 1 1 0 1.455zm0 2.545a.727.727 0 1 1 0-1.455h8.727a.727.727 0 0 1 0 1.455zm0 2.545a.727.727 0 1 1 0-1.455h5.091a.727.727 0 0 1 0 1.455z" class="cls-2" transform="translate(18 335)"/>
    </g>
</svg>
