<svg xmlns="http://www.w3.org/2000/svg" viewBox="0 0 20 20">
    <defs>
        <style>
            .cls-1{fill:rgba(255,96,96,0)}.cls-2{fill:#fff}
        </style>
    </defs>
    <g id="icon" transform="translate(-18 -284)">
        <path id="bg" d="M0 0h20v20H0z" class="cls-1" transform="translate(18 284)"/>
        <path id="path" d="M8.545 17.273a.727.727 0 0 1-.727.727h-4A1.816 1.816 0 0 1 2 16.179V10a3.393 3.393 0 0 1 1.087-2.351l6.442-5.476a.727.727 0 0 1 .942 0l6.442 5.476A3.392 3.392 0 0 1 18 10v6.18A1.817 1.817 0 0 1 16.181 18h-4a.727.727 0 0 1-.727-.727v-4.364H8.545zm7.636-.727a.363.363 0 0 0 .364-.366V10a1.968 1.968 0 0 0-.575-1.24L10 3.682 4.029 8.757A1.975 1.975 0 0 0 3.455 10v6.182a.361.361 0 0 0 .361.366h3.275v-4.366a.727.727 0 0 1 .727-.727h4.364a.727.727 0 0 1 .727.727v4.364z" class="cls-2" transform="translate(18 284)"/>
    </g>
</svg>
