<?xml version="1.0"?>
<svg xmlns="http://www.w3.org/2000/svg" height="512px" viewBox="0 -35 512 512" width="512px"><path d="m433.15625 206.375c-20.582031-10.363281-44.039062-18.710938-69.429688-24.847656l-36.609374 73.222656c33.421874 9.636719 57.621093 26.71875 57.621093 50.828125 0 39.441406-64.765625 60.078125-128.738281 60.078125s-128.738281-20.636719-128.738281-60.078125c0-24.109375 24.199219-41.1875 57.621093-50.828125l-36.609374-73.222656c-25.390626 6.136718-48.847657 14.484375-69.429688 24.847656-50.84375 25.597656-78.84375 60.828125-78.84375 99.203125 0 38.371094 28 73.601563 78.84375 99.203125 47.570312 23.953125 110.484375 37.144531 177.15625 37.144531s129.585938-13.191406 177.15625-37.144531c50.84375-25.601562 78.84375-60.832031 78.84375-99.203125 0-38.375-28-73.605469-78.84375-99.203125zm0 0" fill="#987c46"/><path d="m256 316.425781c-24.199219 0-46.011719-13.101562-57.398438-34.3125-6.3125 1.589844-12.203124 3.433594-17.5 5.535157-17.492187 6.929687-23.839843 14.519531-23.839843 17.929687s6.347656 11 23.839843 17.929687c19.480469 7.722657 46.777344 12.148438 74.898438 12.148438s55.417969-4.425781 74.898438-12.148438c17.492187-6.929687 23.839843-14.519531 23.839843-17.929687s-6.347656-11-23.839843-17.929687c-5.296876-2.101563-11.1875-3.945313-17.5-5.535157-11.386719 21.210938-33.199219 34.3125-57.398438 34.3125zm0 0" fill="#987c46"/><path d="m224.539062 266.984375c6.089844 12.171875 17.851563 19.441406 31.460938 19.441406s25.371094-7.269531 31.460938-19.441406l108.039062-216.082031c5.488281-10.984375 4.914062-23.777344-1.539062-34.222656-6.457032-10.445313-17.640626-16.679688-29.921876-16.679688h-216.078124c-12.28125 0-23.464844 6.234375-29.921876 16.679688-6.453124 10.445312-7.027343 23.238281-1.539062 34.222656zm0 0" fill="#987c46"/></svg>
