<svg xmlns="http://www.w3.org/2000/svg" id="baseline-assignment_turned_in-24px" viewBox="0 0 20 20">
    <defs>
        <style>
            .cls-1{fill:none}.cls-2{fill:#fff}
        </style>
    </defs>
    <path id="Path_93" d="M0 0h20v20H0z" class="cls-1" data-name="Path 93"/>
    <path id="Path_94" d="M16.333 2.667H12.85a2.49 2.49 0 0 0-4.7 0H4.667A1.672 1.672 0 0 0 3 4.333V16a1.672 1.672 0 0 0 1.667 1.667h11.666A1.672 1.672 0 0 0 18 16V4.333a1.672 1.672 0 0 0-1.667-1.666zm-5.833 0a.833.833 0 1 1-.833.833.836.836 0 0 1 .833-.833zM8.833 14.333L5.5 11l1.175-1.175 2.158 2.15 5.492-5.492L15.5 7.667z" class="cls-2" data-name="Path 94" transform="translate(-.5 -.167)"/>
</svg>
