<svg xmlns="http://www.w3.org/2000/svg" width="15.051" height="14.595" viewBox="0 0 15.051 14.595">
    <defs>
        <style>
         .cls-1{fill:#344466}
        </style>
    </defs>
    <g id="Group_74" data-name="Group 74" transform="translate(-2187.008 -378.312)">
        <path id="Path_279" d="M30.334 13.427L27 11.492V7.624l3.334-1.936 3.334 1.936v3.868zm-2.572-2.374l2.572 1.493 2.572-1.493V8.062l-2.572-1.493-2.572 1.493z" class="cls-1" data-name="Path 279" transform="translate(2164.199 372.623)"/>
        <g id="Group_71" data-name="Group 71" transform="translate(2187.008 385.173)">
            <path id="Path_280" d="M8.429 49.438L5 47.509v-3.875l3.429-1.929 3.429 1.929v3.875zm-2.667-2.375l2.667 1.5 2.667-1.5V44.08l-2.667-1.5-2.667 1.5z" class="cls-1" data-name="Path 280" transform="translate(-5 -41.705)"/>
        </g>
        <g id="Group_72" data-name="Group 72" transform="translate(2195.2 385.173)">
            <path id="Path_281" d="M51.429 49.438L48 47.509v-3.875l3.429-1.929 3.429 1.929v3.875zm-2.667-2.375l2.667 1.5 2.667-1.5V44.08l-2.667-1.5-2.667 1.5z" class="cls-1" data-name="Path 281" transform="translate(-48 -41.705)"/>
        </g>
    </g>
</svg>
