<svg xmlns="http://www.w3.org/2000/svg" id="Outline" viewBox="0 0 20.742 20.742">
    <defs>
        <style>
            .cls-1{fill:#78849e}
        </style>
    </defs>
    <g id="Group_17" data-name="Group 17">
        <path id="Path_32" d="M19.133 3H5.3A2.3 2.3 0 0 0 3 5.3v16.138a2.3 2.3 0 0 0 2.3 2.3h16.138a2.311 2.311 0 0 0 2.3-2.3V7.609zm2.3 18.438H5.3V5.3h12.876l3.261 3.261z" class="cls-1" data-name="Path 32" transform="translate(-3 -3)"/>
        <path id="Path_33" d="M12.457 12a3.457 3.457 0 1 0 3.457 3.457A3.452 3.452 0 0 0 12.457 12z" class="cls-1" data-name="Path 33" transform="translate(-2.086 -1.629)"/>
        <path id="Rectangle_1094" d="M0 0h10.371v4.609H0z" class="cls-1" data-name="Rectangle 1094" transform="translate(3.457 3.457)"/>
    </g>
</svg>
