<svg id="Smile_icon" xmlns="http://www.w3.org/2000/svg" viewBox="0 0 40 40">
  <defs>
    <style>
      .cls-1 {
        fill: none;
      }

      .cls-2 {
        fill: #987c46;
      }
    </style>
  </defs>
  <path id="Path_27" data-name="Path 27" class="cls-1" d="M0,0H40V40H0Z"/>
  <path id="Path_28" data-name="Path 28" class="cls-2" d="M18.65,2A16.667,16.667,0,1,0,35.333,18.667,16.659,16.659,0,0,0,18.65,2Zm.017,30A13.333,13.333,0,1,1,32,18.667,13.33,13.33,0,0,1,18.667,32ZM24.5,17A2.5,2.5,0,1,0,22,14.5,2.5,2.5,0,0,0,24.5,17ZM12.833,17a2.5,2.5,0,1,0-2.5-2.5A2.5,2.5,0,0,0,12.833,17Zm5.833,10.833A9.16,9.16,0,0,0,27.183,22H10.15A9.16,9.16,0,0,0,18.667,27.833Z" transform="translate(1.333 1.333)"/>
</svg>
